<svg id="icons" xmlns="http://www.w3.org/2000/svg" viewBox="0 0 260 260"><defs><style>.cls-1{fill:#237aba;fill-rule:evenodd}</style></defs><title>1</title><path class="cls-1" d="M220 40H0v140h220zM30 70h60L70 90H30zm120.06 70H30v-20h140zM240 100v100H40l-20 20h240V80z"/><path class="cls-1" d="M220 40H0v140h220zM30 70h60L70 90H30zm120.06 70H30v-20h140zM240 100v100H40l-20 20h240V80z"/><path class="cls-1" d="M220 40H0v140h220zM30 70h60L70 90H30zm120.06 70H30v-20h140zM240 100v100H40l-20 20h240V80z"/></svg>