<!-- Generated by IcoMoon.io -->
<svg version="1.1" xmlns="http://www.w3.org/2000/svg" width="1024" height="1024" viewBox="0 0 1024 1024">
<defs><style>.cls-1,.cls-1{fill:#237aba;}.cls-1{fill-rule:evenodd;}</style></defs>
<title>insurance</title>
<g id="icomoon-ignore">
</g>
<path class="cls-1" d="M510.779 39.385c173.292 86.055 275.968 265.886 276.913 472.615h196.923c-1.221-260.923-213.228-473.482-473.836-472.615z"></path>
<path class="cls-1" d="M508.81 39.385c-260.687 1.575-470.646 211.692-469.425 472.615h196.923c-0.945-206.73 100.194-384.945 272.502-472.615z"></path>
<path class="cls-1" d="M708.923 512c-0.945-206.73-86.41-386.284-198.774-472.615h-0.67c-111.695 87.394-195.033 265.531-194.402 472.615h157.538v354.462c0 21.752-17.633 39.385-39.385 39.385s-39.385-17.633-39.385-39.385v0-39.385h-78.769v39.385c0 65.255 52.899 118.154 118.154 118.154s118.154-52.899 118.154-118.154v0-354.462z"></path>
</svg>
