<svg xmlns="http://www.w3.org/2000/svg" viewBox="0 0 260 260"><defs><style>.cls-1{fill:#237aba;fill-rule:evenodd;}</style></defs><title>1</title><g id="text"><polygon class="cls-1" points="110.89 112.18 78.81 144.26 107.36 144.22 130.62 120.97 131.05 120.97 131.05 50.4 110.89 70.56 110.89 112.18"/><path class="cls-1" d="M21.67,120a98.33,98.33,0,0,1,196.43-6.8A84.53,84.53,0,0,1,240,122.88c0-1,0-1.91,0-2.88A120,120,0,1,0,120,240c1,0,1.92,0,2.88,0a84.53,84.53,0,0,1-9.67-21.87A98.34,98.34,0,0,1,21.67,120Z"/><path class="cls-1" d="M195,130a65,65,0,1,0,65,65A65,65,0,0,0,195,130Zm5,52.8-10,10H170.27c-.08.82-.12,1.65-.12,2.49s0,1.67.12,2.49H200l-10,10H173.49a24.89,24.89,0,0,0,39.16,5.16l7,7a34.85,34.85,0,0,1-59.5-24.65c0-.84,0-1.67.1-2.49h-.1l.11-.11a34.85,34.85,0,0,1,59.39-22l-7,7a24.89,24.89,0,0,0-39.16,5.16Z"/></g></svg>