<svg xmlns="http://www.w3.org/2000/svg" viewBox="0 0 260 260"><defs><style>.cls-1{fill:#237aba;}</style></defs><title>5</title><g id="icons"><circle class="cls-1" cx="145.18" cy="45" r="35"/><path class="cls-1" d="M240,130H229.65c-4.12-23.53-17.44-44.13-36.36-58.38A55,55,0,0,1,91.87,58.56c-1.39.56-2.75,1.15-4.1,1.77L61.84,40,61,78.05a94.46,94.46,0,0,0-22.71,32L38,110H22a12,12,0,0,0-12,12v36a12,12,0,0,0,12,12H34.4c6.92,24.44,24,45,46.6,57.36V244a6,6,0,0,0,6,6h18a6,6,0,0,0,6-6v-5.89a106.68,106.68,0,0,0,40,0V244a6,6,0,0,0,6,6h18a6,6,0,0,0,6-6V227.36c28.61-15.63,48.25-44.27,49.89-77.36H240a10,10,0,0,0,0-20ZM86,130a15,15,0,1,1,15-15A15,15,0,0,1,86,130Z"/></g></svg>