<svg id="bac410ad-5dba-4b97-8bc4-3386044f07a1" data-name="Blue" xmlns="http://www.w3.org/2000/svg" viewBox="0 0 260 260"><defs><style>.ae80dab1-a94d-4aa9-b638-8d49b2cff9be{fill-rule:evenodd;}</style></defs><circle cx="105.4" cy="90.91" r="40.9"/><path class="ae80dab1-a94d-4aa9-b638-8d49b2cff9be" d="M131.8,140a58.61,58.61,0,0,1-26.6,6.1A61.86,61.86,0,0,1,78.4,140C45,148,20,177.4,20,212.4V230H190V212.4C190,177.4,165.1,148,131.8,140Z"/><path class="ae80dab1-a94d-4aa9-b638-8d49b2cff9be" d="M161.3,90.91a55.44,55.44,0,0,1-1.2,11.5,36.37,36.37,0,1,0-24-58.2A55.68,55.68,0,0,1,161.3,90.91Z"/><path class="ae80dab1-a94d-4aa9-b638-8d49b2cff9be" d="M240,174.4c0-31.19-22.1-57.29-51.7-64.39a53.77,53.77,0,0,1-23.6,5.5,51,51,0,0,1-8.7-.7,58.22,58.22,0,0,1-9.5,14.1,89.69,89.69,0,0,1,55.7,61.19H240Z"/></svg>